<?xml version="1.0" encoding="utf-8"?>
<!-- Generator: Adobe Illustrator 21.0.2, SVG Export Plug-In . SVG Version: 6.00 Build 0)  -->
<svg version="1.1" id="Layer_1" xmlns="http://www.w3.org/2000/svg" xmlns:xlink="http://www.w3.org/1999/xlink" x="0px" y="0px"
	 viewBox="0 0 100 100" style="enable-background:new 0 0 100 100;" xml:space="preserve">
<style type="text/css">
	.st0{fill:url(#SVGID_1_);}
	.st1{fill:#231F20;}
</style>
<g>
	<linearGradient id="SVGID_1_" gradientUnits="userSpaceOnUse" x1="50.7904" y1="72.7348" x2="50.7904" y2="15.0368">
		<stop  offset="0" style="stop-color:#F9B32E"/>
		<stop  offset="0.2423" style="stop-color:#F9BF29"/>
		<stop  offset="0.6504" style="stop-color:#F9CD23"/>
		<stop  offset="1" style="stop-color:#F9D221"/>
	</linearGradient>
	<rect x="8.8" y="15" class="st0" width="84" height="57.7"/>
	<path class="st1" d="M92.8,13.3h-84c-1,0-1.7,0.8-1.7,1.7v57.7c0,1,0.8,1.7,1.7,1.7h32.4v7.4h-9c-1,0-1.7,0.8-1.7,1.7
		c0,1,0.8,1.7,1.7,1.7h37.1c1,0,1.7-0.8,1.7-1.7c0-1-0.8-1.7-1.7-1.7h-9v-7.4h32.4c1,0,1.7-0.8,1.7-1.7V15
		C94.5,14.1,93.7,13.3,92.8,13.3z M91,71H10.6V16.8H91V71z"/>
	<g>
		<path class="st1" d="M50.8,32c0.6,0,1.1-0.5,1.1-1.1v-4.5c0-0.6-0.5-1.1-1.1-1.1s-1.1,0.5-1.1,1.1v4.5C49.7,31.5,50.2,32,50.8,32z
			"/>
		<path class="st1" d="M50.8,57.9c-0.6,0-1.1,0.5-1.1,1.1v4.5c0,0.6,0.5,1.1,1.1,1.1s1.1-0.5,1.1-1.1V59
			C51.9,58.4,51.4,57.9,50.8,57.9z"/>
		<path class="st1" d="M69.3,43.8h-4.5c-0.6,0-1.1,0.5-1.1,1.1s0.5,1.1,1.1,1.1h4.5c0.6,0,1.1-0.5,1.1-1.1S69.9,43.8,69.3,43.8z"/>
		<path class="st1" d="M37.8,44.9c0-0.6-0.5-1.1-1.1-1.1h-4.5c-0.6,0-1.1,0.5-1.1,1.1s0.5,1.1,1.1,1.1h4.5
			C37.4,46,37.8,45.5,37.8,44.9z"/>
		<path class="st1" d="M60.7,36.1c0.3,0,0.6-0.1,0.8-0.3l3.2-3.2c0.4-0.4,0.4-1.1,0-1.5c-0.4-0.4-1.1-0.4-1.5,0l-3.2,3.2
			c-0.4,0.4-0.4,1.1,0,1.5C60.2,36,60.4,36.1,60.7,36.1z"/>
		<path class="st1" d="M40.1,54.1l-3.2,3.2c-0.4,0.4-0.4,1.1,0,1.5c0.2,0.2,0.5,0.3,0.8,0.3s0.6-0.1,0.8-0.3l3.2-3.2
			c0.4-0.4,0.4-1.1,0-1.5C41.2,53.7,40.5,53.7,40.1,54.1z"/>
		<path class="st1" d="M61.5,54.1c-0.4-0.4-1.1-0.4-1.5,0c-0.4,0.4-0.4,1.1,0,1.5l3.2,3.2c0.2,0.2,0.5,0.3,0.8,0.3
			c0.3,0,0.6-0.1,0.8-0.3c0.4-0.4,0.4-1.1,0-1.5L61.5,54.1z"/>
		<path class="st1" d="M40.1,35.8c0.2,0.2,0.5,0.3,0.8,0.3c0.3,0,0.6-0.1,0.8-0.3c0.4-0.4,0.4-1.1,0-1.5L38.4,31
			c-0.4-0.4-1.1-0.4-1.5,0c-0.4,0.4-0.4,1.1,0,1.5L40.1,35.8z"/>
		<circle class="st1" cx="50.8" cy="44.9" r="10"/>
	</g>
</g>
</svg>
