<?xml version="1.0" encoding="utf-8"?>
<!-- Generator: Adobe Illustrator 21.0.2, SVG Export Plug-In . SVG Version: 6.00 Build 0)  -->
<svg version="1.1" id="Layer_1" xmlns="http://www.w3.org/2000/svg" xmlns:xlink="http://www.w3.org/1999/xlink" x="0px" y="0px"
	 viewBox="0 0 100 100" style="enable-background:new 0 0 100 100;" xml:space="preserve">
<style type="text/css">
	.st0{fill:url(#SVGID_1_);stroke:#231F20;stroke-width:3.4986;stroke-linejoin:round;stroke-miterlimit:10;}
	.st1{fill:#231F20;}
</style>
<g>
	<linearGradient id="SVGID_1_" gradientUnits="userSpaceOnUse" x1="50.7817" y1="73.7348" x2="50.7817" y2="16.0368">
		<stop  offset="0" style="stop-color:#C4C5C7"/>
		<stop  offset="1" style="stop-color:#DBDCDE"/>
	</linearGradient>
	<rect x="8.8" y="16" class="st0" width="84" height="57.7"/>
	<path class="st1" d="M92.8,14.3h-84c-1,0-1.7,0.8-1.7,1.7v57.7c0,1,0.8,1.7,1.7,1.7h32.4v7.4h-9c-1,0-1.7,0.8-1.7,1.7
		c0,1,0.8,1.7,1.7,1.7h37.1c1,0,1.7-0.8,1.7-1.7c0-1-0.8-1.7-1.7-1.7h-9v-7.4h32.4c1,0,1.7-0.8,1.7-1.7V16
		C94.5,15.1,93.7,14.3,92.8,14.3z M91,72H10.5V17.8H91V72z"/>
	<path class="st1" d="M60.9,46.4c0,5.6-4.5,10.1-10.1,10.1s-10.1-4.5-10.1-10.1s4.5-10.1,10.1-10.1c2.1,0,4,0.7,5.7,1.8l-2.9,3.5
		l11.2,0l-2.2-10.9L59.9,34c-2.6-1.9-5.8-3.1-9.1-3.1c-8.5,0-15.4,6.9-15.4,15.4s6.9,15.4,15.4,15.4s15.4-6.9,15.4-15.4H60.9z"/>
</g>
</svg>
