<?xml version="1.0" encoding="utf-8"?>
<!-- Generator: Adobe Illustrator 21.0.2, SVG Export Plug-In . SVG Version: 6.00 Build 0)  -->
<svg version="1.1" id="Layer_1" xmlns="http://www.w3.org/2000/svg" xmlns:xlink="http://www.w3.org/1999/xlink" x="0px" y="0px"
	 viewBox="0 0 100 100" style="enable-background:new 0 0 100 100;" xml:space="preserve">
<style type="text/css">
	.st0{fill:url(#SVGID_1_);}
	.st1{fill:url(#SVGID_2_);}
	.st2{fill:url(#SVGID_3_);}
	.st3{fill:url(#SVGID_4_);}
</style>
<g>
	<linearGradient id="SVGID_1_" gradientUnits="userSpaceOnUse" x1="31.4462" y1="17.0458" x2="31.4462" y2="81.5516">
		<stop  offset="0" style="stop-color:#376393"/>
		<stop  offset="1" style="stop-color:#204055"/>
	</linearGradient>
	<path class="st0" d="M18.1,39l-0.3-20.4c0-1,0.8-1.9,1.9-1.9L40,17.1c1.6,0,2.4,2,1.3,3.1l-5.7,5.7l9.4,9.4l-8.7,8.7l-9.4-9.4
		l-5.7,5.7C20.1,41.5,18.1,40.7,18.1,39L18.1,39z M18.1,39"/>
	<linearGradient id="SVGID_2_" gradientUnits="userSpaceOnUse" x1="69.9484" y1="17.0458" x2="69.9484" y2="81.5516">
		<stop  offset="0" style="stop-color:#376393"/>
		<stop  offset="1" style="stop-color:#204055"/>
	</linearGradient>
	<path class="st1" d="M74.5,34.8l5.7,5.7c1.2,1.2,3.1,0.3,3.1-1.3l0.3-20.4c0-1-0.8-1.9-1.9-1.9l-20.4,0.3c-1.6,0-2.4,2-1.3,3.1
		l5.6,5.6l-9.4,9.4l8.7,8.7L74.5,34.8z M74.5,34.8"/>
	<linearGradient id="SVGID_3_" gradientUnits="userSpaceOnUse" x1="69.9353" y1="17.0458" x2="69.9353" y2="81.5516">
		<stop  offset="0" style="stop-color:#376393"/>
		<stop  offset="1" style="stop-color:#204055"/>
	</linearGradient>
	<path class="st2" d="M60.1,78.3c-1.2,1.2-0.3,3.1,1.3,3.1l20.4,0.3c1,0,1.9-0.8,1.9-1.9l-0.3-20.4c0-1.6-2-2.4-3.1-1.3L74.5,64
		L65,54.5l-8.7,8.7l9.4,9.4L60.1,78.3z M60.1,78.3"/>
	<linearGradient id="SVGID_4_" gradientUnits="userSpaceOnUse" x1="31.4397" y1="17.0458" x2="31.4397" y2="81.5516">
		<stop  offset="0" style="stop-color:#376393"/>
		<stop  offset="1" style="stop-color:#204055"/>
	</linearGradient>
	<path class="st3" d="M19.7,81.7L40,81.4c1.6,0,2.4-2,1.3-3.1l-5.7-5.6l9.4-9.4l-8.7-8.7l-9.4,9.4l-5.7-5.7
		c-1.2-1.2-3.1-0.4-3.1,1.3l-0.3,20.4C17.8,80.8,18.7,81.7,19.7,81.7L19.7,81.7z M19.7,81.7"/>
</g>
</svg>
