<?xml version="1.0" encoding="utf-8"?>
<!-- Generator: Adobe Illustrator 21.0.2, SVG Export Plug-In . SVG Version: 6.00 Build 0)  -->
<svg version="1.1" id="Layer_1" xmlns="http://www.w3.org/2000/svg" xmlns:xlink="http://www.w3.org/1999/xlink" x="0px" y="0px"
	 viewBox="0 0 100 100" style="enable-background:new 0 0 100 100;" xml:space="preserve">
<style type="text/css">
	.st0{fill:#A6A8AB;}
	.st1{fill:url(#SVGID_1_);}
	.st2{fill:#231F20;}
</style>
<g>
	<g>
		<g>
			<path class="st0" d="M82.7,27.3H18.5c-1,0-1.7-0.8-1.7-1.7c0-1,0.8-1.7,1.7-1.7h64.3c1,0,1.7,0.8,1.7,1.7
				C84.5,26.6,83.7,27.3,82.7,27.3z"/>
		</g>
		<g>
			<path class="st0" d="M82.7,44H18.5c-1,0-1.7-0.8-1.7-1.7s0.8-1.7,1.7-1.7h64.3c1,0,1.7,0.8,1.7,1.7S83.7,44,82.7,44z"/>
		</g>
		<g>
			<path class="st0" d="M82.7,60.6H18.5c-1,0-1.7-0.8-1.7-1.7s0.8-1.7,1.7-1.7h64.3c1,0,1.7,0.8,1.7,1.7S83.7,60.6,82.7,60.6z"/>
		</g>
	</g>
	<linearGradient id="SVGID_1_" gradientUnits="userSpaceOnUse" x1="50.5888" y1="74.3747" x2="50.5888" y2="25.6003">
		<stop  offset="0" style="stop-color:#3B9375"/>
		<stop  offset="1" style="stop-color:#97D1C6"/>
	</linearGradient>
	<polygon class="st1" points="82.7,42.2 67.4,25.6 46,57 38.7,47.7 18.5,74.4 82.7,74.4 	"/>
	<g>
		<path class="st2" d="M82.7,76.1H18.5c-0.7,0-1.3-0.4-1.6-1c-0.3-0.6-0.2-1.3,0.2-1.8l20.2-26.7c0.3-0.4,0.8-0.7,1.4-0.7
			c0,0,0,0,0,0c0.5,0,1,0.2,1.4,0.7l5.8,7.4L66,24.6c0.3-0.4,0.8-0.7,1.3-0.8c0.5,0,1.1,0.2,1.4,0.6L84,41.1
			c0.3,0.3,0.5,0.7,0.5,1.2v32.1C84.5,75.3,83.7,76.1,82.7,76.1z M22,72.6h59V42.9L67.6,28.4L47.4,57.9c-0.3,0.5-0.8,0.7-1.4,0.8
			c-0.6,0-1.1-0.2-1.4-0.7l-5.9-7.5L22,72.6z"/>
	</g>
</g>
</svg>
