<?xml version="1.0" encoding="utf-8"?>
<!-- Generator: Adobe Illustrator 21.0.2, SVG Export Plug-In . SVG Version: 6.00 Build 0)  -->
<svg version="1.1" id="Layer_1" xmlns="http://www.w3.org/2000/svg" xmlns:xlink="http://www.w3.org/1999/xlink" x="0px" y="0px"
	 viewBox="0 0 100 100" style="enable-background:new 0 0 100 100;" xml:space="preserve">
<style type="text/css">
	.st0{fill:url(#SVGID_1_);}
	.st1{fill:#231F20;}
</style>
<g>
	<linearGradient id="SVGID_1_" gradientUnits="userSpaceOnUse" x1="38.2663" y1="61.6567" x2="77.8885" y2="22.0344">
		<stop  offset="0" style="stop-color:#1B82E0"/>
		<stop  offset="0.2628" style="stop-color:#2288DF"/>
		<stop  offset="0.6345" style="stop-color:#349ADA"/>
		<stop  offset="1" style="stop-color:#4DB1D5"/>
	</linearGradient>
	<polygon class="st0" points="77.9,22 21.9,45.3 47.8,52.1 54.7,78.1 	"/>
	<g>
		<path class="st1" d="M54.7,79.8c0,0-0.1,0-0.1,0c-0.7-0.1-1.4-0.6-1.6-1.3l-6.6-25l-25-6.6c-0.7-0.2-1.2-0.8-1.3-1.6
			c0-0.7,0.4-1.4,1.1-1.7l56-23.2c0.6-0.3,1.4-0.1,1.9,0.4c0.5,0.5,0.6,1.3,0.4,1.9l-23.2,56C56,79.4,55.4,79.8,54.7,79.8z
			 M27.3,44.9l20.9,5.5c0.6,0.2,1.1,0.6,1.2,1.2L55,72.6l19.6-47.3L27.3,44.9z"/>
	</g>
</g>
</svg>
