<?xml version="1.0" encoding="utf-8"?>
<!-- Generator: Adobe Illustrator 21.0.2, SVG Export Plug-In . SVG Version: 6.00 Build 0)  -->
<svg version="1.1" id="Layer_1" xmlns="http://www.w3.org/2000/svg" xmlns:xlink="http://www.w3.org/1999/xlink" x="0px" y="0px"
	 viewBox="0 0 100 100" style="enable-background:new 0 0 100 100;" xml:space="preserve">
<style type="text/css">
	.st0{fill:#FFFFFF;}
	.st1{fill:url(#SVGID_1_);}
	.st2{fill:url(#SVGID_2_);}
	.st3{fill:#B1A491;}
</style>
<rect x="32.6" y="19.5" class="st0" width="35.1" height="20.8"/>
<rect x="18.2" y="42.4" class="st0" width="63.2" height="6.6"/>
<linearGradient id="SVGID_1_" gradientUnits="userSpaceOnUse" x1="49.7631" y1="54.344" x2="49.7631" y2="80.3582">
	<stop  offset="0" style="stop-color:#EAEDF3"/>
	<stop  offset="0.2136" style="stop-color:#E9EBEF"/>
	<stop  offset="0.4324" style="stop-color:#E6E6E3"/>
	<stop  offset="0.6535" style="stop-color:#E1DECE"/>
	<stop  offset="0.875" style="stop-color:#DAD2B2"/>
	<stop  offset="1" style="stop-color:#D5CA9E"/>
</linearGradient>
<rect x="31.8" y="55.4" class="st1" width="35.9" height="25"/>
<g>
	<linearGradient id="SVGID_2_" gradientUnits="userSpaceOnUse" x1="50.1663" y1="51.4941" x2="50.1663" y2="71.9772">
		<stop  offset="0" style="stop-color:#C9DCDE"/>
		<stop  offset="1" style="stop-color:#82B9DF"/>
	</linearGradient>
	<path class="st2" d="M19.4,68c0,2.2,1.8,4,4,4h6.1V56.2c0-1.1,0.9-1.9,1.9-1.9h37.4c1.1,0,1.9,0.9,1.9,1.9V72h6.1c2.2,0,4-1.8,4-4
		V52.3H19.4V68z M19.4,68"/>
	<path d="M76.9,39.3h-6.5V18.8c0-1.1-0.9-1.9-1.9-1.9H31.8c-1.1,0-1.9,0.9-1.9,1.9v20.5h-6.5c-4.3,0-7.9,3.5-7.9,7.9V68
		c0,4.3,3.5,7.9,7.9,7.9h6.1v4.9c0,1.1,0.9,1.9,1.9,1.9h37.4c1.1,0,1.9-0.9,1.9-1.9v-4.9h6.1c4.3,0,7.9-3.5,7.9-7.9V47.1
		C84.8,42.8,81.3,39.3,76.9,39.3L76.9,39.3z M80.9,68c0,2.2-1.8,4-4,4h-6.1V56.2c0-1.1-0.9-1.9-1.9-1.9H31.5c-1.1,0-1.9,0.9-1.9,1.9
		V72h-6.1c-2.2,0-4-1.8-4-4V52.3h61.5V68z M33.8,20.7h32.8v18.6H33.8V20.7z M19.4,47.1c0-2.2,1.8-4,4-4h53.5c2.2,0,4,1.8,4,4v1.3
		H19.4V47.1z M66.9,78.8H33.4V58.1h33.5V78.8z M66.9,78.8"/>
	<path d="M76.2,43.8c-0.5,0-1,0.2-1.4,0.6c-0.4,0.4-0.6,0.9-0.6,1.4c0,0.5,0.2,1,0.6,1.4c0.4,0.4,0.9,0.6,1.4,0.6
		c0.5,0,1-0.2,1.4-0.6c0.4-0.4,0.6-0.9,0.6-1.4c0-0.5-0.2-1-0.6-1.4C77.2,44.1,76.7,43.8,76.2,43.8L76.2,43.8z M76.2,43.8"/>
	<path class="st3" d="M38.4,66.3h22.7c1.1,0,1.9-0.9,1.9-1.9c0-1.1-0.9-1.9-1.9-1.9H38.4c-1.1,0-1.9,0.9-1.9,1.9
		C36.5,65.4,37.4,66.3,38.4,66.3L38.4,66.3z M38.4,66.3"/>
	<path class="st3" d="M38.4,74.5H49c1.1,0,1.9-0.9,1.9-1.9c0-1.1-0.9-1.9-1.9-1.9H38.4c-1.1,0-1.9,0.9-1.9,1.9
		C36.5,73.7,37.4,74.5,38.4,74.5L38.4,74.5z M38.4,74.5"/>
</g>
</svg>
