<?xml version="1.0" encoding="utf-8"?>
<!-- Generator: Adobe Illustrator 21.0.2, SVG Export Plug-In . SVG Version: 6.00 Build 0)  -->
<svg version="1.1" id="Layer_1" xmlns="http://www.w3.org/2000/svg" xmlns:xlink="http://www.w3.org/1999/xlink" x="0px" y="0px"
	 viewBox="0 0 100 100" style="enable-background:new 0 0 100 100;" xml:space="preserve">
<style type="text/css">
	.st0{fill:url(#SVGID_1_);}
	.st1{fill:url(#SVGID_2_);}
	.st2{fill:#231F20;}
	.st3{fill:url(#SVGID_3_);}
</style>
<g>
	<linearGradient id="SVGID_1_" gradientUnits="userSpaceOnUse" x1="32.35" y1="71.291" x2="32.35" y2="21.8431">
		<stop  offset="0" style="stop-color:#FEF2C9"/>
		<stop  offset="0.1233" style="stop-color:#FEF5D4"/>
		<stop  offset="0.4455" style="stop-color:#FFFAEC"/>
		<stop  offset="0.7457" style="stop-color:#FFFEFA"/>
		<stop  offset="1" style="stop-color:#FFFFFF"/>
	</linearGradient>
	<path class="st0" d="M47.7,71.3c0,0-8-3.1-15.3-5C25,64.5,17,63.7,17,63.7V21.8c0,0,7.1,0.6,15.3,2.7s15.3,5,15.3,5V71.3z"/>
	<linearGradient id="SVGID_2_" gradientUnits="userSpaceOnUse" x1="63.0481" y1="71.291" x2="63.0481" y2="21.8431">
		<stop  offset="0" style="stop-color:#FEF2C9"/>
		<stop  offset="0.1233" style="stop-color:#FEF5D4"/>
		<stop  offset="0.4455" style="stop-color:#FFFAEC"/>
		<stop  offset="0.7457" style="stop-color:#FFFEFA"/>
		<stop  offset="1" style="stop-color:#FFFFFF"/>
	</linearGradient>
	<path class="st1" d="M47.7,71.3c0,0,8-3.1,15.3-5c7.4-1.8,15.3-2.7,15.3-2.7V21.8c0,0-7.1,0.6-15.3,2.7s-15.3,5-15.3,5V71.3z"/>
	<path class="st2" d="M79.7,20.4c-0.4-0.4-0.9-0.5-1.4-0.5c-0.3,0-7.4,0.6-15.6,2.7c-6.9,1.7-12.9,4-14.9,4.8c-2-0.8-8-3-14.9-4.8
		c-8.3-2.1-15.3-2.7-15.6-2.7c-0.5-0.1-1.1,0.1-1.4,0.5c-0.4,0.4-0.6,0.9-0.6,1.4v41.8c0,1,0.7,1.8,1.7,1.9c0.1,0,7.9,0.8,15.1,2.6
		c7.2,1.8,15,4.8,15.1,4.9c0.2,0.1,0.5,0.1,0.7,0.1c0.2,0,0.5,0,0.7-0.1c0.1,0,8-3.1,15.1-4.9c7.2-1.8,15-2.6,15.1-2.6
		c1-0.1,1.7-0.9,1.7-1.9V21.8C80.3,21.3,80.1,20.8,79.7,20.4z M18.9,62V24c2.7,0.3,7.6,1,13,2.4c6.1,1.5,11.6,3.5,13.9,4.4v37.8
		c-3-1.1-8.1-2.8-13-4.1C27.4,63.1,21.7,62.3,18.9,62z M76.5,62c-2.8,0.3-8.5,1.1-13.9,2.5c-4.9,1.2-10,3-13,4.1V30.8
		c2.3-0.9,7.8-2.9,13.9-4.4c5.4-1.3,10.3-2.1,13-2.4V62z"/>
	<g>
		<linearGradient id="SVGID_3_" gradientUnits="userSpaceOnUse" x1="69.5263" y1="76.7787" x2="69.5263" y2="42.6614">
			<stop  offset="0" style="stop-color:#DDDDD5"/>
			<stop  offset="0.3537" style="stop-color:#EFEFEB"/>
			<stop  offset="0.7076" style="stop-color:#FBFBFA"/>
			<stop  offset="1" style="stop-color:#FFFFFF"/>
		</linearGradient>
		<path class="st3" d="M65.2,76.8l-0.3-0.6c-0.3-0.7-1.4-3-2-3.9c-0.7-1.2-1.7-2.7-2.7-4.3c-1.4-2.1-3-4.5-4.4-7
			c-1.1-1.8-0.5-2.8-0.1-3.3c0.4-0.4,1-0.6,1.6-0.7c0.6,0,1.2,0.2,1.6,0.6l5,5.7l0.4-0.1V44.9c0-1.3,1-2.3,2.3-2.3
			c1.2,0,2.3,1,2.3,2.3v11.8c0,0.1,0.1,0.2,0.2,0.2s0.2-0.1,0.2-0.2v-4.1c0-1.3,1-2.3,2.3-2.3c1.2,0,2.3,1,2.3,2.3v5.8
			c0,0.1,0.1,0.2,0.2,0.2c0.1,0,0.2-0.1,0.2-0.2v-4.1c0-1.3,1-2.3,2.3-2.3c1.2,0,2.3,1,2.3,2.3v5.8c0,0.1,0.1,0.2,0.2,0.2
			s0.2-0.1,0.2-0.2v-3.7c0-1.3,1-2.3,2.3-2.3s2.3,1,2.3,2.3V65c0,2.5-2,9.1-2.6,11l-0.2,0.7H65.2z"/>
	</g>
	<path d="M81.5,52.2c-0.4,0-0.9,0.1-1.3,0.2c-0.7-1.4-2.1-2.3-3.7-2.3c-0.5,0-1,0.1-1.5,0.3c-0.9-1.4-2.7-2.2-4.3-1.8V45
		c0-2.3-1.8-4.2-4.1-4.2c-2.3,0-4.1,1.9-4.1,4.2v13.9l-2-2.3l-0.1-0.1c-0.8-0.8-1.8-1.2-2.9-1.2c-1.1,0-2.1,0.4-2.9,1.2
		c-1.4,1.4-1.5,3.4-0.2,5.5c1.5,2.6,3,5,4.5,7.1c1,1.5,1.9,3,2.6,4.1c0.5,0.9,1.7,3.4,2.2,4.5c0.3,0.6,0.9,0.9,1.5,0.9h16
		c0.7,0,1.3-0.5,1.6-1.1c0.3-0.9,2.9-9.2,2.9-12.5v-8.6C85.6,54.1,83.8,52.2,81.5,52.2z M82.7,65c0,1.9-1.4,6.9-2.5,10.7H65.9l0,0
		c-0.4-0.8-1.5-3-2-3.9c-0.7-1.3-1.7-2.7-2.7-4.3c-1.4-2.1-2.9-4.5-4.4-7c-0.3-0.5-0.7-1.5-0.2-2c0.4-0.4,1.3-0.4,1.6-0.1l5,5.7
		c0.3,0.3,0.8,0.5,1.2,0.3l0.4-0.1c0.4-0.2,0.7-0.6,0.7-1V45c0-0.7,0.5-1.2,1.2-1.2c0.7,0,1.2,0.5,1.2,1.2v11.8
		c0,0.7,0.6,1.3,1.3,1.3c0.7,0,1.3-0.6,1.3-1.3v-4.1c0-0.7,0.5-1.2,1.2-1.2s1.2,0.5,1.2,1.2v5.8c0,0.7,0.6,1.3,1.3,1.3
		c0.7,0,1.3-0.6,1.3-1.3v-4.1c0-0.7,0.5-1.2,1.2-1.2s1.2,0.5,1.2,1.2v5.8c0,0.7,0.6,1.3,1.3,1.3c0.7,0,1.3-0.6,1.3-1.3v-3.7
		c0-0.7,0.5-1.2,1.2-1.2c0.7,0,1.2,0.5,1.2,1.2V65z"/>
</g>
</svg>
