<?xml version="1.0" encoding="utf-8"?>
<!-- Generator: Adobe Illustrator 21.0.2, SVG Export Plug-In . SVG Version: 6.00 Build 0)  -->
<svg version="1.1" id="Layer_1" xmlns="http://www.w3.org/2000/svg" xmlns:xlink="http://www.w3.org/1999/xlink" x="0px" y="0px"
	 viewBox="0 0 100 100" style="enable-background:new 0 0 100 100;" xml:space="preserve">
<style type="text/css">
	.st0{fill:url(#SVGID_1_);}
</style>
<g>
	<linearGradient id="SVGID_1_" gradientUnits="userSpaceOnUse" x1="50.0954" y1="82.0696" x2="50.0954" y2="17.3445">
		<stop  offset="0" style="stop-color:#D1B392"/>
		<stop  offset="1" style="stop-color:#EAE8DD"/>
	</linearGradient>
	<path class="st0" d="M76.7,67.9c0-0.3-0.1-0.7-0.4-1c-1.9-2.3-3.4-4.2-4.5-5.8c0.7-1.4,1.2-2.7,1.6-3.8l7.8-1.2
		c0.3,0,0.6-0.2,0.8-0.5c0.2-0.3,0.4-0.7,0.4-1v-9.4c0-0.4-0.1-0.7-0.4-1c-0.2-0.3-0.5-0.5-0.9-0.5l-7.7-1.2
		c-0.4-1.1-0.9-2.5-1.7-4.1c0.5-0.7,1.3-1.8,2.3-3c1-1.3,1.7-2.2,2.1-2.7c0.2-0.3,0.4-0.7,0.4-1c0-0.9-2.4-3.6-7.3-8.1
		c-0.3-0.3-0.7-0.4-1.1-0.4c-0.4,0-0.7,0.1-1,0.4l-6,4.5c-1.4-0.7-2.6-1.2-3.8-1.6l-1.2-7.7c0-0.3-0.2-0.6-0.5-0.9
		c-0.3-0.3-0.6-0.4-1-0.4h-9.4c-0.8,0-1.3,0.4-1.5,1.2c-0.4,1.6-0.8,4.1-1.2,7.8c-1.4,0.5-2.7,1-3.9,1.6L33,23.4
		c-0.3-0.2-0.7-0.4-1.1-0.4c-0.6,0-2,1-4,3c-2,2-3.4,3.5-4.1,4.5c-0.2,0.3-0.4,0.6-0.4,1c0,0.3,0.1,0.6,0.4,1
		c1.9,2.3,3.4,4.2,4.6,5.8c-0.7,1.4-1.2,2.7-1.6,3.8l-7.8,1.2c-0.3,0-0.6,0.2-0.8,0.5c-0.2,0.3-0.4,0.7-0.4,1v9.4
		c0,0.4,0.1,0.7,0.4,1c0.2,0.3,0.5,0.4,0.9,0.5l7.7,1.2c0.4,1.3,1,2.7,1.8,4.1c-0.5,0.7-1.3,1.8-2.4,3.1c-1,1.3-1.7,2.2-2.1,2.7
		c-0.2,0.3-0.4,0.7-0.4,1c0,0.9,2.4,3.6,7.3,8.1c0.3,0.3,0.7,0.4,1.1,0.4c0.4,0,0.8-0.1,1-0.4l6-4.5c1.4,0.7,2.6,1.2,3.8,1.6
		l1.2,7.7c0,0.3,0.2,0.6,0.5,0.9c0.3,0.3,0.6,0.4,1,0.4h9.4c0.8,0,1.3-0.4,1.5-1.2c0.4-1.6,0.8-4.2,1.2-7.8c1.3-0.4,2.6-0.9,3.9-1.6
		l5.8,4.6c0.3,0.2,0.7,0.4,1.1,0.4c0.6,0,2-1,4-3c2-2,3.4-3.5,4.2-4.5C76.6,68.6,76.7,68.3,76.7,67.9L76.7,67.9z M59.2,58.9
		c-2.5,2.5-5.6,3.8-9.2,3.8c-3.6,0-6.6-1.3-9.2-3.8c-2.5-2.5-3.8-5.6-3.8-9.2c0-3.6,1.3-6.6,3.8-9.2c2.5-2.5,5.6-3.8,9.2-3.8
		c3.6,0,6.6,1.3,9.2,3.8c2.5,2.5,3.8,5.6,3.8,9.2C63,53.3,61.8,56.3,59.2,58.9L59.2,58.9z M59.2,58.9"/>
	<g>
		<path d="M54.8,83.8h-9.4c-0.8,0-1.5-0.3-2.1-0.8c-0.7-0.5-1.1-1.3-1.1-2.1l-1-6.6c-0.6-0.2-1.3-0.5-2-0.8L34,77.4
			c-0.2,0.2-0.9,0.7-2.1,0.7c-0.8,0-1.5-0.3-2.1-0.8c-7.4-6.8-7.9-8.3-7.9-9.5c0-0.7,0.2-1.3,0.7-2c0.4-0.5,1.1-1.4,2.1-2.8
			c0.7-0.8,1.2-1.6,1.7-2.2c-0.4-0.8-0.7-1.6-1-2.4l-6.6-1.1c-0.7-0.1-1.4-0.4-1.9-1.1c-0.5-0.6-0.7-1.3-0.7-2.1V45
			c0-0.7,0.2-1.4,0.7-2c0.7-0.9,1.5-1.2,2-1.2l6.7-1c0.2-0.7,0.6-1.4,0.9-2.1c-1-1.4-2.3-3-3.9-4.9c-0.5-0.8-0.8-1.5-0.8-2.1
			c0-0.8,0.3-1.6,0.8-2.2c0.7-1,2.1-2.5,4.2-4.6c2.9-2.9,4.2-3.5,5.2-3.5c0.7,0,1.4,0.2,2.1,0.7l5,3.9c0.6-0.3,1.3-0.6,2.1-0.8
			c0.3-3.2,0.7-5.5,1.1-6.9c0.5-1.6,1.7-2.5,3.2-2.5h9.4c0.8,0,1.5,0.3,2.1,0.8c0.7,0.6,1.1,1.3,1.1,2.1l1,6.6
			c0.6,0.2,1.3,0.5,2,0.8l5.1-3.9c1-0.8,2.9-1,4.2,0.1c7.3,6.8,7.9,8.3,7.9,9.5c0,0.7-0.2,1.3-0.7,2c-0.4,0.6-1.2,1.5-2.2,2.8
			c-0.7,0.8-1.2,1.5-1.6,2.1c0.4,0.9,0.7,1.7,1,2.4l6.6,1c0.8,0.2,1.5,0.6,2,1.1c0.5,0.6,0.7,1.3,0.7,2.1v9.4c0,0.7-0.2,1.4-0.7,2
			c-0.7,0.9-1.5,1.2-2,1.2l-6.7,1c-0.3,0.7-0.6,1.4-0.9,2.1c1,1.4,2.3,3,3.9,4.9c0.5,0.8,0.8,1.4,0.8,2.1c0,1.1-0.5,1.8-0.9,2.2
			c-0.7,0.9-2.1,2.4-4.2,4.5c-2.9,2.9-4.2,3.5-5.2,3.5c-0.7,0-1.4-0.2-2.1-0.7l-5-3.9c-0.7,0.3-1.4,0.6-2.1,0.8
			c-0.3,3.2-0.7,5.5-1.1,7C57.5,82.9,56.3,83.8,54.8,83.8z M38.7,69.4l1,0.5c1.3,0.7,2.5,1.1,3.5,1.4l1.1,0.3l1.3,8.8l9.2-0.2
			c0.2-1.4,0.6-3.9,0.9-7.5l0.1-1.2l1.1-0.3c1.2-0.4,2.4-0.9,3.6-1.4l1-0.5l6.7,5.2c0-0.1,0.8-0.6,2.7-2.5c1.9-1.9,3.2-3.3,3.9-4.3
			c-1.8-2.2-3.3-4.1-4.5-5.8l-0.6-0.9l0.5-0.9c0.7-1.3,1.2-2.5,1.5-3.6l0.3-1l8.6-1.3l0-9.2L72.2,44l-0.3-1
			c-0.4-1.1-0.9-2.4-1.6-3.9l-0.4-0.9l0.6-0.8c0.5-0.8,1.3-1.8,2.3-3.1c0.9-1.2,1.6-2,2-2.6c-0.4-0.6-1.8-2.4-6.6-6.8L61.4,30
			l-1-0.5C59.2,28.8,58,28.3,57,28l-1.1-0.3l-1.3-8.8l-9.2,0.2c-0.2,1.4-0.6,3.9-0.9,7.4l-0.1,1.1L43.3,28c-1.4,0.4-2.6,0.9-3.6,1.5
			l-1,0.5L32,24.8c0,0.1-0.8,0.6-2.8,2.5c-1.9,1.9-3.3,3.3-4,4.3c1.8,2.1,3.4,4.1,4.6,5.8l0.6,0.9l-0.5,0.9
			c-0.7,1.3-1.2,2.5-1.5,3.6l-0.3,1l-8.6,1.3l0,9l8.5,1.3l0.3,1c0.4,1.2,0.9,2.5,1.6,3.9l0.5,1l-0.6,0.9c-0.6,0.8-1.4,1.8-2.4,3.1
			c-0.9,1.2-1.6,2-2,2.5c0.4,0.6,1.8,2.4,6.6,6.8L38.7,69.4z M81,54.2C81,54.3,81,54.3,81,54.2L81,54.2z M19.1,54L19.1,54
			C19.1,54,19.1,54,19.1,54z M19.2,45.2L19.2,45.2C19.2,45.2,19.2,45.2,19.2,45.2z M50.1,64.4c-4,0-7.5-1.4-10.4-4.3
			c-2.9-2.9-4.3-6.4-4.3-10.4c0-4,1.4-7.5,4.3-10.4c2.9-2.9,6.4-4.3,10.4-4.3s7.5,1.4,10.4,4.3c2.9,2.9,4.3,6.4,4.3,10.4
			c0,4-1.4,7.5-4.3,10.4l0,0C57.6,63,54.1,64.4,50.1,64.4z M50.1,38.5c-3.1,0-5.7,1.1-7.9,3.3c-2.2,2.2-3.3,4.8-3.3,7.9
			c0,3.1,1.1,5.7,3.3,7.9c2.2,2.2,4.8,3.3,7.9,3.3c3.1,0,5.7-1.1,7.9-3.3c2.2-2.2,3.3-4.8,3.3-7.9c0-3.1-1.1-5.7-3.3-7.9
			C55.8,39.6,53.2,38.5,50.1,38.5z"/>
	</g>
</g>
</svg>
