<?xml version="1.0" encoding="utf-8"?>
<!-- Generator: Adobe Illustrator 21.0.2, SVG Export Plug-In . SVG Version: 6.00 Build 0)  -->
<svg version="1.1" id="Layer_1" xmlns="http://www.w3.org/2000/svg" xmlns:xlink="http://www.w3.org/1999/xlink" x="0px" y="0px"
	 viewBox="0 0 100 100" style="enable-background:new 0 0 100 100;" xml:space="preserve">
<style type="text/css">
	.st0{fill:url(#SVGID_1_);}
	.st1{fill:#231F20;}
</style>
<g>
	<linearGradient id="SVGID_1_" gradientUnits="userSpaceOnUse" x1="50.2991" y1="60.3691" x2="50.2991" y2="38.5204">
		<stop  offset="0" style="stop-color:#EC1C24"/>
		<stop  offset="1" style="stop-color:#F3856A"/>
	</linearGradient>
	<circle class="st0" cx="50.3" cy="49.4" r="10.9"/>
	<g>
		<path class="st1" d="M50.3,36.8c-7,0-12.7,5.7-12.7,12.7s5.7,12.7,12.7,12.7c7,0,12.7-5.7,12.7-12.7S57.3,36.8,50.3,36.8z
			 M50.3,58.6c-5.1,0-9.2-4.1-9.2-9.2s4.1-9.2,9.2-9.2s9.2,4.1,9.2,9.2S55.4,58.6,50.3,58.6z"/>
		<path class="st1" d="M84.5,48.3h-7.2c-0.6-13.8-11.5-25-25.3-25.9v-6.6c0-1-0.8-1.7-1.7-1.7c-1,0-1.7,0.8-1.7,1.7v6.6
			c-13.8,0.9-24.7,12.1-25.3,25.9h-7.2c-1,0-1.7,0.8-1.7,1.7c0,1,0.8,1.7,1.7,1.7h7.2c1.2,13.3,11.9,23.8,25.2,24.6v7.8
			c0,1,0.8,1.7,1.7,1.7c1,0,1.7-0.8,1.7-1.7v-7.8c13.3-0.9,24.1-11.4,25.2-24.6h7.2c1,0,1.7-0.8,1.7-1.7
			C86.3,49.1,85.5,48.3,84.5,48.3z M52,73v-2.9c0-1-0.8-1.7-1.7-1.7c-1,0-1.7,0.8-1.7,1.7V73C37.1,72.1,28,63.2,26.8,51.8h3.5
			c1,0,1.7-0.8,1.7-1.7c0-1-0.8-1.7-1.7-1.7h-3.6c0.6-11.9,10-21.5,21.8-22.4v4.2c0,1,0.8,1.7,1.7,1.7c1,0,1.7-0.8,1.7-1.7v-4.2
			c11.8,0.9,21.2,10.5,21.8,22.4h-3.6c-1,0-1.7,0.8-1.7,1.7c0,1,0.8,1.7,1.7,1.7h3.5C72.6,63.2,63.5,72.1,52,73z"/>
	</g>
</g>
</svg>
