<?xml version="1.0" encoding="utf-8"?>
<!-- Generator: Adobe Illustrator 21.0.2, SVG Export Plug-In . SVG Version: 6.00 Build 0)  -->
<svg version="1.1" id="Layer_1" xmlns="http://www.w3.org/2000/svg" xmlns:xlink="http://www.w3.org/1999/xlink" x="0px" y="0px"
	 viewBox="0 0 100 100" style="enable-background:new 0 0 100 100;" xml:space="preserve">
<style type="text/css">
	.st0{fill:url(#SVGID_1_);}
</style>
<g>
	<linearGradient id="SVGID_1_" gradientUnits="userSpaceOnUse" x1="50.4718" y1="18.1704" x2="50.4718" y2="82.3332">
		<stop  offset="0" style="stop-color:#8BC53F"/>
		<stop  offset="1" style="stop-color:#009345"/>
	</linearGradient>
	<path class="st0" d="M82.6,35.2v-3.5H68.9V17.9h-3.5v13.7H52.2V17.9h-3.5v13.7H35.6V17.9h-3.5v13.7H18.3v3.5h13.7v13.1H18.3v3.5
		h13.7V65H18.3v3.5h13.7v13.7h3.5V68.5h13.1v13.7h3.5V68.5h13.1v13.7h3.5V68.5h13.7V65H68.9V51.8h13.7v-3.5H68.9V35.2H82.6z
		 M35.6,35.2h13.1v13.1H35.6V35.2z M35.6,65V51.8h13.1V65H35.6z M65.4,65H52.2V51.8h13.1V65z M65.4,48.3H52.2V35.2h13.1V48.3z"/>
	<path d="M88,23.3V12.5H77.2v3.7H55.9v-3.7H45.1v3.7H23.7v-3.7H12.9v10.8h3.6v21.1h-3.6v10.8h3.6v21.6h-3.6v10.8h10.8V84h21.3v3.6
		h10.8V84h21.3v3.6H88V76.8h-3.6V55.2H88V44.5h-3.6V23.3H88z M80.9,44.5h-3.6v10.8h3.6v21.6h-3.6v3.7H55.9v-3.7H45.1v3.7H23.7v-3.7
		h-3.6V55.2h3.6V44.5h-3.6V23.3h3.6v-3.6h21.3v3.6h10.8v-3.6h21.3v3.6h3.6V44.5z"/>
</g>
</svg>
