<?xml version="1.0" encoding="utf-8"?>
<!-- Generator: Adobe Illustrator 21.0.2, SVG Export Plug-In . SVG Version: 6.00 Build 0)  -->
<svg version="1.1" id="Layer_1" xmlns="http://www.w3.org/2000/svg" xmlns:xlink="http://www.w3.org/1999/xlink" x="0px" y="0px"
	 viewBox="0 0 100 100" style="enable-background:new 0 0 100 100;" xml:space="preserve">
<style type="text/css">
	.st0{fill:url(#SVGID_1_);stroke:#231F20;stroke-width:2.8475;stroke-linejoin:round;stroke-miterlimit:10;}
	.st1{fill:#221F1F;}
</style>
<g>
	<linearGradient id="SVGID_1_" gradientUnits="userSpaceOnUse" x1="48.0795" y1="33.7599" x2="48.0795" y2="84.3007">
		<stop  offset="0" style="stop-color:#FFFFFF"/>
		<stop  offset="0.2924" style="stop-color:#FBFBFA"/>
		<stop  offset="0.6463" style="stop-color:#EFEFEB"/>
		<stop  offset="1" style="stop-color:#DDDDD5"/>
	</linearGradient>
	<path class="st0" d="M71.5,27.8c-2.8,0-5.1,2.3-5.1,5.1v-5.2c0-2.8-2.3-5.1-5.1-5.1c-2.8,0-5.1,2.3-5.1,5.1v-5.8
		c0-2.8-2.3-5.1-5.1-5.1c-2.8,0-5.1,2.3-5.1,5.1v6.3c0-2.8-2.3-5.1-5.1-5.1c-2.8,0-5.1,2.3-5.1,5.1v19.3c0,0-0.3,3.7,0,5.6
		c-3.2-4.5-7.4-8.5-9.8-9.1c-5-1.2-7.6,4.5-6.2,6.9c0.9,1.5,6.2,8.9,10.1,13.9c1.6,2.1,3,4.4,4.3,6.7C38.2,78.3,45.5,83,54,83
		c12.1,0,21.9-9.5,22.5-21.4l0.1,0.1V32.9C76.6,30,74.3,27.8,71.5,27.8z"/>
	<path class="st1" d="M78,32.9c0-3.6-2.9-6.5-6.5-6.5c-1.4,0-2.6,0.4-3.7,1.2c-0.1-3.5-3-6.3-6.5-6.3c-1.4,0-2.6,0.4-3.7,1.1v-0.4
		c0-3.6-2.9-6.5-6.5-6.5c-3.6,0-6.5,2.9-6.5,6.5v0.9c-1-0.7-2.3-1.1-3.7-1.1c-3.6,0-6.5,2.9-6.5,6.5v20.7l-0.1-0.1
		c-2.6-3-5.6-5.7-7.9-6.2c-2.7-0.6-5.3,0.3-6.9,2.5c-1.5,2.1-1.9,4.7-0.8,6.5c1,1.6,6.4,9.1,10.2,14c1.4,1.8,2.6,3.8,4.2,6.5
		c4.2,7.6,12.3,12.3,20.9,12.3c6.8,0,13.3-2.9,17.9-8c3.6-4,5.8-9,6.1-14.3c0-0.2,0-0.3,0-0.4V32.9z M69.8,74.5c-4,4.5-9.8,7-15.8,7
		c-7.7,0-14.7-4.2-18.5-10.9c-1.6-2.9-2.9-5-4.4-6.9c-4-5.2-9.2-12.4-10-13.7c-0.4-0.6-0.2-2.1,0.7-3.3c0.5-0.6,1.4-1.6,2.9-1.6
		c0.3,0,0.6,0,1,0.1c1.7,0.4,5.6,3.8,8.9,8.5c0.4,0.5,1.1,0.7,1.7,0.5c0.4-0.2,0.6-0.5,0.8-0.9c0.1-0.2,0.1-0.4,0.1-0.6V28.2
		c0-2,1.6-3.7,3.7-3.7c2,0,3.7,1.6,3.7,3.7v19.2v3.8c0,0.8,0.6,1.4,1.4,1.4s1.4-0.6,1.4-1.4v-3.8V28.2v-6.3c0-2,1.6-3.7,3.7-3.7
		s3.7,1.6,3.7,3.7v5.8v18.9v4.1c0,0.8,0.6,1.4,1.4,1.4c0.8,0,1.4-0.6,1.4-1.4v-4.1V27.7c0-2,1.6-3.7,3.7-3.7c2,0,3.7,1.6,3.7,3.7
		v5.2v19.6c0,0.8,0.6,1.4,1.4,1.4s1.4-0.6,1.4-1.4V32.9c0-2,1.6-3.7,3.7-3.7s3.7,1.6,3.7,3.7v27.7C75.1,65.7,73.3,70.6,69.8,74.5z"
		/>
</g>
</svg>
