<?xml version="1.0" encoding="utf-8"?>
<!-- Generator: Adobe Illustrator 21.0.2, SVG Export Plug-In . SVG Version: 6.00 Build 0)  -->
<svg version="1.1" id="Layer_1" xmlns="http://www.w3.org/2000/svg" xmlns:xlink="http://www.w3.org/1999/xlink" x="0px" y="0px"
	 viewBox="0 0 100 100" style="enable-background:new 0 0 100 100;" xml:space="preserve">
<style type="text/css">
	.st0{fill:url(#SVGID_1_);}
	.st1{fill:#D1D0F7;}
</style>
<g>
	<linearGradient id="SVGID_1_" gradientUnits="userSpaceOnUse" x1="49.9837" y1="81.1998" x2="49.9837" y2="20.5141">
		<stop  offset="0" style="stop-color:#7C83F6"/>
		<stop  offset="1" style="stop-color:#ABB2F6"/>
	</linearGradient>
	<circle class="st0" cx="50" cy="49.7" r="33.4"/>
	<path class="st1" d="M69,48V34.2h10.5c-0.6-1.2-1.4-2.4-2.1-3.5H69v-8.3c-1.1-0.8-2.3-1.5-3.5-2.1v10.5H51.7V16.5
		c-0.6,0-1.2-0.1-1.7-0.1s-1.2,0.1-1.7,0.1v14.2H34.5V20.2c-1.2,0.6-2.4,1.4-3.5,2.1v8.3h-8.3c-0.8,1.1-1.5,2.3-2.1,3.5H31V48H16.7
		c0,0.6-0.1,1.2-0.1,1.7c0,0.6,0.1,1.2,0.1,1.7H31v13.8H20.5c0.6,1.2,1.4,2.4,2.1,3.5H31v8.3c1.1,0.8,2.3,1.5,3.5,2.1V68.8h13.8V83
		c0.6,0,1.2,0.1,1.7,0.1h0c0.6,0,1.2-0.1,1.7-0.1V68.8h13.8v10.5c1.2-0.6,2.4-1.4,3.5-2.1v-8.3h8.3c0.8-1.1,1.5-2.3,2.1-3.5H69V51.5
		h14.2c0-0.6,0.1-1.2,0.1-1.7c0-0.6-0.1-1.2-0.1-1.7H69z M48.2,65.3H34.5V51.5h13.8V65.3z M48.2,48H34.5V34.2h13.8V48z M65.5,65.3
		H51.7V51.5h13.8V65.3z M65.5,48H51.7V34.2h13.8V48z"/>
	<path d="M88.8,44.3h-4.2c-2.3-15-14.2-26.9-29.1-29.2V11H44.7v4.1c-15.1,2.3-27,14.2-29.3,29.3h-4v10.8h4
		c2.3,15.1,14.3,27,29.3,29.3v4.1h10.8v-4.1c15-2.4,26.8-14.2,29.1-29.2h4.2V44.3z M55.5,80.8v-3.1H44.7v3.2
		c-13.1-2.2-23.5-12.6-25.8-25.7h3.3V44.3h-3.3c2.3-13.1,12.7-23.5,25.8-25.7v3.2h10.8v-3.1C68.5,21,78.8,31.3,81.1,44.3H78v10.8
		h3.1C78.8,68.2,68.5,78.5,55.5,80.8z"/>
</g>
</svg>
