<?xml version="1.0" encoding="utf-8"?>
<!-- Generator: Adobe Illustrator 21.0.2, SVG Export Plug-In . SVG Version: 6.00 Build 0)  -->
<svg version="1.1" id="Layer_1" xmlns="http://www.w3.org/2000/svg" xmlns:xlink="http://www.w3.org/1999/xlink" x="0px" y="0px"
	 viewBox="0 0 100 100" style="enable-background:new 0 0 100 100;" xml:space="preserve">
<style type="text/css">
	.st0{fill:url(#SVGID_1_);}
	.st1{fill:#231F20;}
</style>
<g>
	<linearGradient id="SVGID_1_" gradientUnits="userSpaceOnUse" x1="43.0825" y1="23.4598" x2="43.0825" y2="72.1729">
		<stop  offset="0" style="stop-color:#FFFFFF"/>
		<stop  offset="0.1924" style="stop-color:#FAFDFF"/>
		<stop  offset="0.4255" style="stop-color:#EBF6FF"/>
		<stop  offset="0.6799" style="stop-color:#D3EAFF"/>
		<stop  offset="0.9476" style="stop-color:#B1DBFF"/>
		<stop  offset="1" style="stop-color:#A9D7FF"/>
	</linearGradient>
	<circle class="st0" cx="43.1" cy="43.3" r="24.5"/>
	<path class="st1" d="M82.7,75.7L65.5,58.5c3-4.3,4.7-9.6,4.7-15.2c0-15-12.2-27.1-27.1-27.1S16,28.3,16,43.3s12.2,27.1,27.1,27.1
		c5.5,0,10.7-1.7,15-4.5l17.2,17.2c1,1,2.4,1.5,3.7,1.5s2.7-0.5,3.7-1.5C84.7,81,84.7,77.7,82.7,75.7z M21.2,43.3
		c0-12.1,9.8-21.9,21.9-21.9s21.9,9.8,21.9,21.9s-9.8,21.9-21.9,21.9S21.2,55.4,21.2,43.3z"/>
	<polygon class="st1" points="54.9,39.8 46.6,39.8 46.6,31.5 39.6,31.5 39.6,39.8 31.3,39.8 31.3,46.8 39.6,46.8 39.6,55.1 
		46.6,55.1 46.6,46.8 54.9,46.8 	"/>
</g>
</svg>
