<?xml version="1.0" encoding="utf-8"?>
<!-- Generator: Adobe Illustrator 21.0.2, SVG Export Plug-In . SVG Version: 6.00 Build 0)  -->
<svg version="1.1" id="Layer_1" xmlns="http://www.w3.org/2000/svg" xmlns:xlink="http://www.w3.org/1999/xlink" x="0px" y="0px"
	 viewBox="0 0 100 100" style="enable-background:new 0 0 100 100;" xml:space="preserve">
<style type="text/css">
	.st0{fill:#556080;}
	.st1{fill:#25B99A;}
	.st2{fill:#434C6D;}
	.st3{fill:#FFFFFF;}
</style>
<g>
	<g>
		<path class="st0" d="M50.3,47.1l28.4-14.2v35L50.3,82.1V47.1z M50.3,82.1"/>
		<path class="st1" d="M50.3,47.1L21.9,32.9v35l28.4,14.2V47.1z M50.3,82.1"/>
		<path class="st2" d="M50.3,47.1L21.9,32.9l29.5-14.2l27.3,14.2L50.3,47.1z M78.7,32.9"/>
		<path d="M79.2,31.9L51.9,17.7c-0.3-0.1-0.7-0.2-1,0L21.5,31.9c-0.5,0.2-0.8,0.8-0.8,1.3v34.6c0,0.4,0.2,0.8,0.7,1l28.5,14.1
			c0.3,0.1,0.6,0.1,0.9,0l28.4-14.1c0.4-0.2,0.7-0.5,0.7-1v-35C79.7,32.5,79.5,32.1,79.2,31.9z M51.3,19.9l24.8,13l-26,13l-0.1,0
			L24.4,32.9L51.3,19.9z M22.9,34.7l26.1,13.1v32.5L22.9,67.2V34.7z M77.6,67.2L51.3,80.3V47.8l26.2-13.1V67.2z"/>
	</g>
	<path class="st3" d="M29.5,62.6l2.6-1.8c1.2,2.4,2.4,4.1,4.1,5.1c1.4,0.8,2.4,0.3,2.4-1.4v-0.1c0-1.8-1.2-3.6-3.3-4.8l-1.6-0.9
		l-0.6-3.5l4-3.1l-6.7-3.8V44L42,50.7v3.7l-4.3,3c2.3,1.8,4.6,4.8,4.6,9v0.1c0,4.3-2.3,6.1-6.1,3.9C33.1,68.5,31,65.7,29.5,62.6z"/>
	<path class="st3" d="M58.5,50.8l6.2-3.6c5-2.9,8.5-0.3,8.5,5.7V53c0,6-3.5,12.7-8.5,15.6l-6.2,3.6V50.8z M62,53v12.8l2.7-1.6
		c2.9-1.7,4.8-5.4,4.8-9.1v-0.1c0-3.8-1.9-5.3-4.8-3.6L62,53z"/>
</g>
</svg>
