<?xml version="1.0" encoding="utf-8"?>
<!-- Generator: Adobe Illustrator 21.0.2, SVG Export Plug-In . SVG Version: 6.00 Build 0)  -->
<svg version="1.1" id="Layer_1" xmlns="http://www.w3.org/2000/svg" xmlns:xlink="http://www.w3.org/1999/xlink" x="0px" y="0px"
	 viewBox="0 0 100 100" style="enable-background:new 0 0 100 100;" xml:space="preserve">
<style type="text/css">
	.st0{fill:url(#SVGID_1_);}
	.st1{fill:#231F20;}
</style>
<g>
	<linearGradient id="SVGID_1_" gradientUnits="userSpaceOnUse" x1="50.417" y1="79.9963" x2="50.417" y2="20.0394">
		<stop  offset="0" style="stop-color:#F3E4DD"/>
		<stop  offset="0.9505" style="stop-color:#FFFFFF"/>
	</linearGradient>
	<path class="st0" d="M66.4,20h-32c-5.9,0-10.7,4.8-10.7,10.7v32c0,5.9,4.8,10.7,10.7,10.7h9.4l6.6,6.6l6.6-6.6h9.4
		c5.9,0,10.7-4.8,10.7-10.7v-32C77.1,24.8,72.3,20,66.4,20z"/>
	<g>
		<g>
			<path class="st1" d="M50.4,81.7L50.4,81.7c-0.5,0-0.9-0.2-1.2-0.5l-6.1-6.1h-8.7c-6.8,0-12.4-5.6-12.4-12.4v-32
				c0-6.8,5.6-12.4,12.4-12.4h32c6.8,0,12.4,5.6,12.4,12.4v32c0,6.8-5.6,12.4-12.4,12.4h-8.7l-6.1,6.1
				C51.3,81.6,50.9,81.7,50.4,81.7z M34.4,21.8c-4.9,0-8.9,4-8.9,8.9v32c0,4.9,4,8.9,8.9,8.9h9.4c0.5,0,0.9,0.2,1.2,0.5l5.4,5.4
				l5.4-5.4c0.3-0.3,0.8-0.5,1.2-0.5h9.4c4.9,0,8.9-4,8.9-8.9v-32c0-4.9-4-8.9-8.9-8.9H34.4z"/>
		</g>
		<g>
			<g>
				<path class="st1" d="M64.2,39.1H36.6c-1,0-1.7-0.8-1.7-1.7c0-1,0.8-1.7,1.7-1.7h27.6c1,0,1.7,0.8,1.7,1.7
					C66,38.3,65.2,39.1,64.2,39.1z"/>
			</g>
			<g>
				<path class="st1" d="M64.2,48.3H36.6c-1,0-1.7-0.8-1.7-1.7c0-1,0.8-1.7,1.7-1.7h27.6c1,0,1.7,0.8,1.7,1.7
					C66,47.5,65.2,48.3,64.2,48.3z"/>
			</g>
			<g>
				<path class="st1" d="M64.2,57.4H36.6c-1,0-1.7-0.8-1.7-1.7c0-1,0.8-1.7,1.7-1.7h27.6c1,0,1.7,0.8,1.7,1.7
					C66,56.7,65.2,57.4,64.2,57.4z"/>
			</g>
		</g>
	</g>
</g>
</svg>
