<?xml version="1.0" encoding="utf-8"?>
<!-- Generator: Adobe Illustrator 21.0.2, SVG Export Plug-In . SVG Version: 6.00 Build 0)  -->
<svg version="1.1" id="Layer_1" xmlns="http://www.w3.org/2000/svg" xmlns:xlink="http://www.w3.org/1999/xlink" x="0px" y="0px"
	 viewBox="0 0 100 100" style="enable-background:new 0 0 100 100;" xml:space="preserve">
<style type="text/css">
	.st0{fill:#A6A8AB;}
	.st1{fill:#E6E7E8;}
	.st2{fill:url(#SVGID_1_);}
	.st3{fill:#231F20;}
</style>
<g>
	<circle class="st0" cx="50.3" cy="49.7" r="33.4"/>
	<path class="st1" d="M82.8,44.5H19.2c-1,0-1.7,0.8-1.7,1.7s0.8,1.7,1.7,1.7h64C83.1,46.8,83,45.6,82.8,44.5z"/>
	<path class="st1" d="M22.6,31.2c0.2,0,0.3,0.1,0.5,0.1h55.1c-0.8-1.2-1.7-2.4-2.7-3.5H25.2C24.2,28.9,23.4,30.1,22.6,31.2z"/>
	<path class="st1" d="M19,61.2c0.4,1.2,0.9,2.3,1.5,3.4h59.6c0.6-1.1,1.1-2.3,1.5-3.5H19.6C19.4,61.1,19.2,61.2,19,61.2z"/>
	<linearGradient id="SVGID_1_" gradientUnits="userSpaceOnUse" x1="54.3586" y1="83.099" x2="54.3586" y2="31.3518">
		<stop  offset="0" style="stop-color:#3B9375"/>
		<stop  offset="1" style="stop-color:#97D1C6"/>
	</linearGradient>
	<path class="st2" d="M45.4,65l-7.8-10L25.1,71.5c6.1,7.1,15.1,11.6,25.2,11.6c18.4,0,33.4-14.9,33.4-33.4c0-0.6-0.1-1.2-0.1-1.8
		L68.4,31.4L45.4,65z"/>
	<path class="st3" d="M50.3,14.6c-19.4,0-35.1,15.7-35.1,35.1S31,84.8,50.3,84.8s35.1-15.7,35.1-35.1S69.7,14.6,50.3,14.6z
		 M81.9,49.7C81.9,49.7,81.9,49.7,81.9,49.7c0,1.1-0.1,2.2-0.2,3.3c-1.6,15.9-15.1,28.4-31.4,28.4c-0.7,0-1.4-0.1-2.1-0.1
		c-0.4,0-0.8,0-1.1-0.1c-0.1,0-0.2,0-0.3,0c-2-0.2-4.1-0.6-6-1.3c0,0,0,0,0,0c-1-0.3-2-0.7-3-1.1c-0.1,0-0.2-0.1-0.3-0.2
		c-0.8-0.4-1.7-0.8-2.5-1.2c-0.2-0.1-0.4-0.2-0.6-0.3c-0.7-0.4-1.4-0.8-2.1-1.3c-0.2-0.2-0.5-0.3-0.7-0.5c-0.6-0.4-1.2-0.9-1.8-1.4
		c-0.2-0.2-0.5-0.4-0.7-0.6c-0.5-0.5-1.1-1-1.6-1.5c-0.1-0.1-0.1-0.2-0.2-0.2l10.2-13.5L44,66c0.3,0.4,0.9,0.7,1.4,0.7
		c0.6,0,1.1-0.3,1.4-0.8l21.7-31.8l13.3,14.5C81.9,49,81.9,49.3,81.9,49.7z M50.3,18.1c15,0,27.5,10.5,30.8,24.5L69.6,30.2
		c-0.4-0.4-0.9-0.6-1.4-0.6c-0.5,0-1,0.3-1.3,0.8L45.3,62l-6.3-8.1c-0.3-0.4-0.7-0.6-1.4-0.7c-0.5,0-1.1,0.3-1.4,0.7L25,68.6
		c-4-5.3-6.3-11.8-6.3-18.9C18.7,32.3,32.9,18.1,50.3,18.1z"/>
</g>
</svg>
