<?xml version="1.0" encoding="utf-8"?>
<!-- Generator: Adobe Illustrator 21.0.2, SVG Export Plug-In . SVG Version: 6.00 Build 0)  -->
<svg version="1.1" id="Layer_1" xmlns="http://www.w3.org/2000/svg" xmlns:xlink="http://www.w3.org/1999/xlink" x="0px" y="0px"
	 viewBox="0 0 100 100" style="enable-background:new 0 0 100 100;" xml:space="preserve">
<style type="text/css">
	.st0{fill:url(#SVGID_1_);}
	.st1{fill:#231F20;}
	.st2{fill:#EA5062;}
</style>
<g>
	<g>
		<linearGradient id="SVGID_1_" gradientUnits="userSpaceOnUse" x1="50.4261" y1="74.8894" x2="50.4261" y2="36.3107">
			<stop  offset="0" style="stop-color:#3B9375"/>
			<stop  offset="1" style="stop-color:#97D1C6"/>
		</linearGradient>
		<polygon class="st0" points="69.6,48.7 64.7,56.3 50.4,36.3 34.7,59.5 28,51.7 13.6,74.9 87.3,74.9 		"/>
		<path class="st1" d="M87.3,76.6H13.6c-0.6,0-1.2-0.3-1.5-0.9c-0.3-0.6-0.3-1.2,0-1.8l14.4-23.2c0.3-0.5,0.8-0.8,1.4-0.8
			c0.6,0,1.1,0.2,1.5,0.6l5.2,6L49,35.3c0.3-0.5,0.9-0.8,1.4-0.8c0.7,0,1.1,0.3,1.4,0.7l12.8,17.9l3.5-5.4c0.3-0.5,0.9-0.8,1.5-0.8
			c0.6,0,1.1,0.3,1.5,0.8l17.7,26.2c0.4,0.5,0.4,1.2,0.1,1.8C88.5,76.3,87.9,76.6,87.3,76.6z M16.7,73.1H84L69.7,51.9l-3.4,5.3
			c-0.3,0.5-0.8,0.8-1.4,0.8c-0.6,0-1.1-0.3-1.5-0.7L50.5,39.4L36.1,60.5c-0.3,0.5-0.8,0.7-1.3,0.8c-0.6,0-1.1-0.2-1.4-0.6l-5.1-6
			L16.7,73.1z"/>
	</g>
	<polygon class="st2" points="59.3,21.9 50.4,30.9 41.5,21.9 	"/>
	<g>
		<g>
			<path class="st1" d="M13.6,34.7c-1,0-1.8-0.8-1.8-1.7c0-1,0.8-1.7,1.7-1.7h0c1,0,1.7,0.8,1.7,1.7C15.3,33.9,14.5,34.7,13.6,34.7z
				"/>
		</g>
		<g>
			<path class="st1" d="M79.9,34.7c-1,0-1.8-0.8-1.8-1.7c0-1,0.8-1.7,1.7-1.7h0c1,0,1.7,0.8,1.7,1.7C81.7,33.9,80.9,34.7,79.9,34.7z
				 M72.6,34.7c-1,0-1.8-0.8-1.8-1.7c0-1,0.8-1.7,1.7-1.7h0c1,0,1.7,0.8,1.7,1.7C74.3,33.9,73.5,34.7,72.6,34.7z M65.2,34.7
				c-1,0-1.8-0.8-1.8-1.7c0-1,0.8-1.7,1.7-1.7h0c1,0,1.7,0.8,1.7,1.7C66.9,33.9,66.2,34.7,65.2,34.7z M57.8,34.7
				c-1,0-1.8-0.8-1.8-1.7c0-1,0.8-1.7,1.7-1.7h0c1,0,1.7,0.8,1.7,1.7C59.6,33.9,58.8,34.7,57.8,34.7z M50.4,34.7
				c-1,0-1.8-0.8-1.8-1.7c0-1,0.8-1.7,1.7-1.7h0c1,0,1.7,0.8,1.7,1.7C52.2,33.9,51.4,34.7,50.4,34.7z M43.1,34.7
				c-1,0-1.8-0.8-1.8-1.7c0-1,0.8-1.7,1.7-1.7h0c1,0,1.7,0.8,1.7,1.7C44.8,33.9,44,34.7,43.1,34.7z M35.7,34.7c-1,0-1.8-0.8-1.8-1.7
				c0-1,0.8-1.7,1.7-1.7h0c1,0,1.7,0.8,1.7,1.7C37.4,33.9,36.7,34.7,35.7,34.7z M28.3,34.7c-1,0-1.8-0.8-1.8-1.7
				c0-1,0.8-1.7,1.7-1.7h0c1,0,1.7,0.8,1.7,1.7C30.1,33.9,29.3,34.7,28.3,34.7z M21,34.7c-1,0-1.8-0.8-1.8-1.7c0-1,0.8-1.7,1.7-1.7
				h0c1,0,1.7,0.8,1.7,1.7C22.7,33.9,21.9,34.7,21,34.7z"/>
		</g>
		<g>
			<path class="st1" d="M87.3,34.7c-1,0-1.8-0.8-1.8-1.7c0-1,0.8-1.7,1.7-1.7h0c1,0,1.7,0.8,1.7,1.7C89,33.9,88.3,34.7,87.3,34.7z"
				/>
		</g>
	</g>
</g>
</svg>
