<?xml version="1.0" encoding="utf-8"?>
<!-- Generator: Adobe Illustrator 23.0.1, SVG Export Plug-In . SVG Version: 6.00 Build 0)  -->
<svg version="1.1" xmlns="http://www.w3.org/2000/svg" xmlns:xlink="http://www.w3.org/1999/xlink" x="0px" y="0px"
	 viewBox="0 0 100 100" style="enable-background:new 0 0 100 100;" xml:space="preserve">
<style type="text/css">
	.st0{fill:none;stroke:#000000;stroke-width:4.1403;stroke-linejoin:round;stroke-miterlimit:10;}
	.st1{fill:url(#SVGID_1_);}
	.st2{display:none;}
	.st3{display:inline;fill:url(#SVGID_2_);stroke:#000000;stroke-width:3.37;stroke-linejoin:round;stroke-miterlimit:10;}
</style>
<g id="Layer_1">
	<path class="st0" d="M61,74.6"/>
	<g>
		<g>
			<g>
				<linearGradient id="SVGID_1_" gradientUnits="userSpaceOnUse" x1="26.9206" y1="50.9839" x2="74.973" y2="50.9839">
					<stop  offset="0" style="stop-color:#7C83F6"/>
					<stop  offset="1" style="stop-color:#ABB2F6"/>
				</linearGradient>
				<path class="st1" d="M50.9,16.8c-13.2,0-24,10.8-24,24c0,4.5,1.2,8.8,3.6,12.6l19.1,30.7c0.4,0.6,1,0.9,1.7,0.9c0,0,0,0,0,0
					c0.7,0,1.3-0.4,1.7-1l18.6-31c2.2-3.7,3.4-8,3.4-12.3C75,27.6,64.2,16.8,50.9,16.8z"/>
			</g>
		</g>
	</g>
	<g>
		<g>
			<path d="M50.9,16.8c-13.2,0-24,10.8-24,24c0,4.5,1.2,8.8,3.6,12.6l19.1,30.7c0.4,0.6,1,0.9,1.7,0.9c0,0,0,0,0,0
				c0.7,0,1.3-0.4,1.7-1l18.6-31c2.2-3.7,3.4-8,3.4-12.3C75,27.6,64.2,16.8,50.9,16.8z M68.1,51.1L51.3,79.3L33.9,51.4
				c-2-3.2-3-6.8-3-10.5c0-11,9-20,20-20s20,9,20,20C71,44.5,70,48,68.1,51.1z"/>
		</g>
	</g>
	<g>
		<g>
			<path d="M50.9,28.8c-6.6,0-12,5.4-12,12c0,6.6,5.3,12,12,12c6.8,0,12-5.5,12-12C63,34.2,57.6,28.8,50.9,28.8z M50.9,48.9
				c-4.4,0-8-3.6-8-8c0-4.4,3.6-8,8-8s8,3.6,8,8C59,45.2,55.5,48.9,50.9,48.9z"/>
		</g>
	</g>
</g>
<g id="Layer_2" class="st2">
	<linearGradient id="SVGID_2_" gradientUnits="userSpaceOnUse" x1="50.5592" y1="18.9663" x2="50.5592" y2="83.492">
		<stop  offset="0" style="stop-color:#7C83F6"/>
		<stop  offset="1" style="stop-color:#ABB2F6"/>
	</linearGradient>
	<polygon class="st3" points="21.4,19 37,83.3 79.7,83.5 79.5,38.2 49.8,50.8 	"/>
</g>
</svg>
