<?xml version="1.0" encoding="utf-8"?>
<!-- Generator: Adobe Illustrator 23.0.1, SVG Export Plug-In . SVG Version: 6.00 Build 0)  -->
<svg version="1.1" xmlns="http://www.w3.org/2000/svg" xmlns:xlink="http://www.w3.org/1999/xlink" x="0px" y="0px"
	 viewBox="0 0 100 100" style="enable-background:new 0 0 100 100;" xml:space="preserve">
<style type="text/css">
	.st0{display:none;}
	.st1{display:inline;}
	.st2{fill:url(#SVGID_1_);stroke:#000000;stroke-width:3.37;stroke-linejoin:round;stroke-miterlimit:10;}
</style>
<g id="Layer_1">
	<g class="st0">
		<path class="st1" d="M49.9,18.4c17.6,0,31.9,14.3,31.9,31.9S67.5,82.2,49.9,82.2S18,67.9,18,50.3S32.3,18.4,49.9,18.4 M49.9,15.4
			C30.7,15.4,15,31,15,50.3s15.6,34.9,34.9,34.9s34.9-15.6,34.9-34.9S69.2,15.4,49.9,15.4L49.9,15.4z"/>
	</g>
	<g class="st0">
		<circle class="st1" cx="49.9" cy="50.3" r="2.9"/>
	</g>
</g>
<g id="Layer_2">
	<linearGradient id="SVGID_1_" gradientUnits="userSpaceOnUse" x1="50.5592" y1="18.9663" x2="50.5592" y2="83.492">
		<stop  offset="0" style="stop-color:#7C83F6"/>
		<stop  offset="1" style="stop-color:#ABB2F6"/>
	</linearGradient>
	<polygon class="st2" points="21.4,19 37,83.3 79.7,83.5 79.5,38.2 49.8,50.8 	"/>
</g>
</svg>
